<?xml version="1.0" encoding="utf-8"?>
<!-- Generator: Adobe Illustrator 23.0.6, SVG Export Plug-In . SVG Version: 6.00 Build 0)  -->
<svg version="1.1" id="Layer_1" xmlns="http://www.w3.org/2000/svg" xmlns:xlink="http://www.w3.org/1999/xlink" x="0px" y="0px"
	 viewBox="0 0 1000 1000" style="enable-background:new 0 0 1000 1000;" xml:space="preserve">
<style type="text/css">
	.st0{fill:#00953B;}
</style>
<g>
	<g>
		<path class="st0" d="M900.2,520.9H886v-61.5h14.2V520.9z M879.9,520.9H705.2v-61.5h14.2v48h49.8c0-0.4,0.1-0.8,0.1-1.2
			c0-9.6-8-17.3-17.9-17.3c-3.7,0-7.1,1.1-9.9,2.9v-13.8c3.6-1.3,7.4-2.1,11.5-2.1c17.6,0,31.8,13.6,31.8,30.3
			c0,0.4-0.1,0.8-0.1,1.2h35v-16.9h14.2v16.9h31.9v-48h14.2V520.9z M695.1,501.9c0,0-1,23.7-33.1,20.3v-13.1c0,0,19.1,4.9,19.1-12.6
			v-20.2h14V501.9z M650.9,489.3c-4.9,2.3-2.6,12.1-3,16.5c-1.1,9.6-5.1,15.5-24.9,16.5c-19.8,1-25.9-8.2-28.5-16.5
			c-2.3-7.3,0-16.5,0-16.5h14.8v11.1c0.5,9.7,12.7,9.2,19.3,7.3c6.6-1.9,4.6-10.2,4.6-16.5c0-6.3,3.6-15.5,15.3-16
			c11.7-0.5,15.3,4.8,15.3,4.8v14.5C663.6,494.6,657,486.4,650.9,489.3 M611.5,525.8c4.3,0,7.8,3.3,7.8,7.4c0,4.1-3.5,7.4-7.8,7.4
			c-4.3,0-7.8-3.3-7.8-7.4C603.7,529.1,607.2,525.8,611.5,525.8 M760.6,525.8c4.3,0,7.8,3.3,7.8,7.4c0,4.1-3.5,7.4-7.8,7.4
			c-4.3,0-7.8-3.3-7.8-7.4C752.8,529.1,756.3,525.8,760.6,525.8 M629,525.8c4.3,0,7.8,3.3,7.8,7.4c0,4.1-3.5,7.4-7.8,7.4
			c-4.3,0-7.8-3.3-7.8-7.4C621.2,529.1,624.7,525.8,629,525.8 M817.7,468.7c4.3,0,7.8,3.3,7.8,7.4c0,4.1-3.5,7.4-7.8,7.4
			c-4.3,0-7.8-3.3-7.8-7.4C809.9,472.1,813.4,468.7,817.7,468.7 M835.2,468.7c4.3,0,7.8,3.3,7.8,7.4c0,4.1-3.5,7.4-7.8,7.4
			c-4.3,0-7.8-3.3-7.8-7.4C827.4,472.1,830.9,468.7,835.2,468.7"/>
	</g>
	<path class="st0" d="M496.7,496.7l-15.5-31.4l-33-14.8l15.5,31.4L496.7,496.7z M536.6,481.9l15.5-31.4l-33,14.8l-15.5,31.4
		L536.6,481.9z M500.2,495.3l12.3-32.7L500.2,430l-12.3,32.6L500.2,495.3z M495.3,500L461,488.2L426.7,500l34.3,11.8L495.3,500z
		 M500.2,504.7l-12.3,32.7l12.3,32.6l12.3-32.6L500.2,504.7z M463.8,518.1l-15.5,31.4l33-14.8l15.5-31.4L463.8,518.1z M503.7,503.3
		l15.5,31.4l33,14.8l-15.5-31.4L503.7,503.3z M539.4,511.8l34.3-11.8l-34.3-11.8L505.1,500L539.4,511.8z"/>
	<g>
		<path class="st0" d="M289,459.3c4.3,0,7.8,3.4,7.8,7.4c0,4.1-3.5,7.4-7.8,7.4c-4.3,0-7.8-3.3-7.8-7.4
			C281.3,462.7,284.8,459.3,289,459.3 M265.9,459.3c4.3,0,7.8,3.4,7.8,7.4c0,4.1-3.5,7.4-7.8,7.4c-4.3,0-7.8-3.3-7.8-7.4
			C258.2,462.7,261.6,459.3,265.9,459.3 M406.5,521h-14v-39.1h14V521z M387.3,494.7c-1.9-1.1-3.8-1.3-5.9-1.3
			c-7.7,0-9.7,5.1-9.7,11.8v15.7h-14v-39h14v6.4c2.8-4.8,7.4-6.9,12.9-6.9h2.7V494.7z M296.2,540.8h-14v-58.9h14V540.8z
			 M272.9,520.9h-14v-39h14V520.9z M253.8,476.2h-12.4v44.8h-15v-44.8h-12.4v-12.6h39.9V476.2z M209.4,502.2h-22v-11.4h22V502.2z
			 M178.7,520.9h-14v-61.5h14V520.9z M348.5,520.9h-14v-4.3c-2.6,3.8-7.4,5.6-12,5.6c-11.7,0-19.9-9.6-19.9-20.9
			c0-11.2,8.1-20.8,19.7-20.8c4.5,0,9.3,1.7,12.2,5.1v-3.8h14V520.9z M326,492.7c-5.7,0-9,4-9,8.8c0,5,3.3,8.8,9,8.8
			c5.7,0,9-3.8,9-8.8C334.9,496.6,331.6,492.7,326,492.7 M144.3,520.9l-3.8-10h-20.7l-4,10h-16l22.3-57.4h16.4l21.8,57.4H144.3z
			 M130.2,481.3l-6.2,18.3h12.5l-6.1-18.3H130.2z M399.6,459.3c4.3,0,7.8,3.4,7.8,7.4c0,4.1-3.5,7.4-7.8,7.4c-4.3,0-7.8-3.3-7.8-7.4
			C391.9,462.7,395.3,459.3,399.6,459.3"/>
	</g>
</g>
</svg>
